<svg width="92" height="40" viewBox="0 0 92 40" fill="none" xmlns="http://www.w3.org/2000/svg">
<g clip-path="url(#clip0_12661_18)">
<path d="M20.9832 0.494629L34.0807 39.0168H91.9999V0.494629H20.9832Z" fill="#F2F2F2"/>
<path d="M0 0.494629V39.0168H34.534L21.4365 0.494629H0Z" fill="#FFED00"/>
<path d="M17.3122 29.4542C17.2668 29.4088 17.4481 28.4118 17.6294 27.9586C17.9467 27.1428 18.5811 26.3724 19.7141 26.2817C20.9378 26.1911 21.7082 26.5537 22.3427 26.5537V19.9822C21.391 19.2571 20.9831 19.9822 20.3939 19.9369C19.8954 19.8916 19.4422 19.0758 19.0343 19.3024C18.3092 19.665 19.3516 20.9793 19.7595 21.2512C20.1673 21.4778 20.6659 21.7044 20.8018 21.7497C21.391 22.0216 21.6176 22.4295 21.7082 23.1093C21.7082 23.2453 21.7082 23.6079 21.6629 23.7438C21.391 24.8768 19.3969 25.9192 18.2186 25.1487C17.6747 24.7862 17.1762 24.2877 16.9949 23.4266C16.6777 21.931 15.59 20.798 15.2274 19.3478C15.0008 18.4413 14.8649 17.4896 14.6383 16.6285C14.4117 15.6768 14.1398 14.7704 13.9585 13.9093C13.7772 13.1389 13.4146 11.9606 13.1427 11.2354C12.055 8.38027 11.5565 8.56155 11.5565 8.56155C11.5565 8.56155 11.9644 9.37731 13.4146 16.4019C13.46 16.6739 14.0038 19.801 14.4117 20.798C14.5476 21.1606 14.7742 21.931 14.9555 22.2936C15.4087 23.2906 16.6324 24.8315 16.723 26.1911C16.7683 27.0069 16.859 27.6414 16.859 28.2305C16.859 28.4118 16.9496 29.1369 17.0856 29.4542C17.4028 30.3152 19.8048 32.9891 22.3427 32.9891V30.9497C19.8048 31.0404 17.4028 29.5901 17.3122 29.4542ZM19.0343 14C19.3516 13.0482 19.5329 9.46795 14.6836 10.5556C15.1821 10.601 15.5447 12.2325 16.723 12.595C17.5841 12.867 18.5358 12.731 18.7171 13.2295C18.3545 13.4108 18.6718 14.1359 19.0343 14ZM16.3151 11.2808C16.3604 11.1448 16.4058 11.2808 16.5417 11.1901C16.6777 11.0542 16.8136 10.8276 17.0402 10.7822C17.2215 10.7369 17.4028 10.7369 17.5841 10.8276C17.6747 10.8729 17.6294 11.0995 17.5388 11.1901C17.3575 11.3261 16.9043 11.0995 16.9043 11.462C16.9043 12.0512 17.6747 11.462 18.0826 11.462C18.3092 12.8216 15.9526 12.4591 16.3151 11.2808ZM10.8314 16.1753C11.8284 14.7251 11.4659 13.1842 11.2846 12.5044C11.1939 14.0453 8.79197 16.13 8.06685 17.4896C7.70429 18.1694 7.25109 19.3024 7.16044 19.9369C6.8432 21.795 7.25109 22.9281 7.70429 23.9704C8.47473 25.8739 7.61365 26.5537 8.20281 26.1911C8.97325 25.5566 8.83729 24.1064 8.79197 23.2C8.74665 22.4748 8.70133 21.6138 8.79197 20.7527C8.97325 19.1665 9.9703 17.399 10.8314 16.1753ZM10.8314 9.60391C10.5595 9.01475 10.0156 9.06007 10.0156 9.06007C10.0156 9.06007 10.7407 9.69455 7.11512 12.731C3.44419 15.7675 6.6166 17.5349 6.6166 17.5349C6.6166 17.5349 5.7102 15.7675 8.65601 13.3202C11.6471 10.8729 10.922 9.83051 10.8314 9.60391ZM9.47177 6.11426C9.38113 6.6581 8.56537 7.20194 8.56537 7.20194C8.11217 7.47386 6.39 8.28963 6.25404 10.1931C6.20872 10.601 6.25404 11.0088 6.39 11.5074C6.8432 10.601 7.47769 9.92115 8.42941 9.33199C10.2875 8.10835 9.47177 6.11426 9.47177 6.11426ZM10.922 21.2059C8.11217 29.4088 13.5053 30.1793 15.0008 32.128C15.0008 32.128 15.59 31.3123 13.1427 28.6384C12.2363 27.6413 11.4659 25.5113 12.1457 22.4295C13.1427 17.9881 11.7378 16.8551 11.7378 16.8551C11.7378 16.8551 12.0097 18.0788 10.922 21.2059Z" fill="#373636"/>
<path d="M38.1143 27.4599C38.2502 27.5052 38.3862 27.5505 38.5675 27.5959C38.7487 27.6412 38.93 27.6412 39.1113 27.6412C39.3832 27.6412 39.6098 27.5959 39.8364 27.4599C40.0177 27.3239 40.1537 27.1427 40.1537 26.8254C40.1537 26.5082 40.0177 26.3269 39.7458 26.1456C39.5645 26.0096 39.3379 25.919 39.1113 25.783C38.8847 25.6471 38.6581 25.5564 38.5221 25.4205C38.2955 25.2392 38.1596 24.922 38.1596 24.5141C38.1596 24.0156 38.3409 23.6983 38.5675 23.517C38.8394 23.3358 39.1566 23.2451 39.5192 23.2451C39.7911 23.2451 40.063 23.2904 40.2896 23.3811V23.8343C40.1083 23.789 39.7911 23.7436 39.5192 23.7436C39.2926 23.7436 39.066 23.789 38.8847 23.8796C38.7034 23.9702 38.6128 24.1515 38.6128 24.4688C38.6128 24.6954 38.7034 24.8313 38.7941 24.9673C38.93 25.0579 39.1113 25.1939 39.3379 25.3298C39.5645 25.4658 39.8364 25.6018 40.063 25.7377C40.2443 25.8284 40.3803 25.9643 40.4709 26.1003C40.5616 26.2362 40.6522 26.4629 40.6522 26.7348C40.6522 27.2333 40.4709 27.5959 40.1537 27.8225C39.8364 28.0491 39.4285 28.1397 39.0207 28.1397C38.7034 28.1397 38.3862 28.0944 38.1143 27.9131V27.4599Z" fill="#373636"/>
<path d="M40.9695 24.3329H41.3774V23.6531L41.8759 23.5625H41.9212V24.3329H42.9182V24.8315H41.9212V26.6896C41.9212 27.0522 42.0118 27.2788 42.1025 27.4147C42.1931 27.5507 42.3744 27.6413 42.5557 27.6413C42.737 27.6413 43.0089 27.5507 43.2355 27.4147L43.3715 27.9132C43.0542 28.0492 42.7823 28.1398 42.5104 28.1398C42.1931 28.1398 41.9212 28.0492 41.7399 27.8226C41.5586 27.596 41.4227 27.2334 41.4227 26.6896V24.8315H41.0148V24.3329H40.9695Z" fill="#373636"/>
<path d="M46.4533 28.1396C46.2267 28.049 46.0454 27.8677 45.9094 27.5958C45.7735 27.7318 45.6375 27.8677 45.4562 27.9584C45.2749 28.049 45.0483 28.0943 44.8217 28.0943C44.5951 28.0943 44.3232 28.049 44.0966 27.8677C43.87 27.6864 43.6887 27.4145 43.6887 26.9613C43.6887 26.5987 43.7794 26.3268 44.006 26.1455C44.2326 25.9643 44.5498 25.8736 45.0483 25.8736C45.2296 25.8736 45.4562 25.8736 45.7734 25.9189V25.4657C45.7734 25.1938 45.6828 25.0125 45.5922 24.8766C45.4562 24.7859 45.3202 24.7406 45.139 24.7406C44.9577 24.7406 44.7764 24.7406 44.5951 24.7859C44.4138 24.8313 44.2326 24.8766 44.0513 25.0125L43.9153 24.514C44.1419 24.4234 44.3232 24.3327 44.5045 24.2874C44.6858 24.2421 44.9124 24.1968 45.1843 24.1968C45.4562 24.1968 45.7734 24.2874 45.9547 24.4687C46.136 24.65 46.272 24.9672 46.272 25.4204V26.5987C46.272 26.78 46.272 27.0066 46.3626 27.1426C46.4533 27.3239 46.5439 27.4598 46.7705 27.5052L46.4533 28.1396ZM45.7281 26.4628C45.2296 26.4628 44.867 26.4628 44.5951 26.5081C44.3232 26.5987 44.1872 26.7347 44.1872 27.0066C44.1872 27.2786 44.3232 27.4598 44.4592 27.5505C44.5951 27.6411 44.7311 27.6411 44.7764 27.6411C44.9577 27.6411 45.1843 27.5958 45.4109 27.5052C45.5922 27.3692 45.7281 27.1426 45.7281 26.78V26.4628Z" fill="#373636"/>
<path d="M46.9517 24.3329H47.3595V23.6531L47.8581 23.5625H47.9034V24.3329H48.9004V24.8315H47.9034V26.6896C47.9034 27.0522 47.994 27.2788 48.0847 27.4147C48.1753 27.5507 48.3566 27.6413 48.5379 27.6413C48.7191 27.6413 48.9911 27.5507 49.2177 27.4147L49.3536 27.9132C49.0364 28.0492 48.7645 28.1398 48.4925 28.1398C48.1753 28.1398 47.9034 28.0492 47.7221 27.8226C47.5408 27.596 47.4049 27.2334 47.4049 26.6896V24.8315H46.997V24.3329H46.9517Z" fill="#373636"/>
<path d="M52.2994 26.3722H50.0788C50.1241 26.8254 50.26 27.1427 50.4413 27.324C50.6679 27.5506 50.9398 27.6412 51.2118 27.6412C51.529 27.6412 51.8462 27.5506 52.1635 27.3693V27.8678C51.8009 28.0491 51.4837 28.1397 51.1664 28.1397C50.7132 28.1397 50.3054 28.0038 50.0334 27.6412C49.7162 27.324 49.5349 26.8254 49.5349 26.1456C49.5349 25.6018 49.6709 25.1486 49.8975 24.786C50.1241 24.4688 50.532 24.2422 51.0305 24.2422C51.393 24.2422 51.665 24.3328 51.8462 24.5141C52.0275 24.6501 52.1182 24.8767 52.1635 25.1033C52.2088 25.3299 52.2541 25.6018 52.2541 25.8284V26.3722H52.2994ZM51.8009 25.8737C51.8009 25.6018 51.7556 25.3299 51.665 25.1486C51.5743 24.9673 51.393 24.8313 51.1211 24.8313C50.8492 24.8313 50.6226 24.922 50.4866 25.1486C50.3054 25.3299 50.2147 25.6018 50.1694 25.919H51.8009V25.8737Z" fill="#373636"/>
<path d="M54.8828 26.2363C54.8828 25.6924 55.0641 25.1939 55.336 24.8313C55.6079 24.4688 56.0158 24.2422 56.5143 24.2422C57.0129 24.2422 57.4207 24.4688 57.6927 24.8313C57.9646 25.1939 58.1459 25.6471 58.1459 26.191C58.1459 26.7348 57.9646 27.2333 57.6927 27.5506C57.4207 27.9131 57.0129 28.1397 56.5143 28.1397C56.0158 28.1397 55.6533 27.9131 55.336 27.5506C55.0641 27.2333 54.8828 26.7801 54.8828 26.2363ZM55.4267 26.191C55.4267 26.5988 55.5173 26.9614 55.6986 27.188C55.8799 27.4599 56.1518 27.5959 56.5143 27.5959C56.8769 27.5959 57.1488 27.4599 57.3301 27.188C57.5114 26.9614 57.602 26.5988 57.602 26.191C57.602 25.7831 57.5114 25.4205 57.3301 25.1486C57.1488 24.8767 56.8769 24.7407 56.5143 24.7407C56.1518 24.7407 55.8799 24.8767 55.6986 25.1486C55.5173 25.4658 55.4267 25.8284 55.4267 26.191Z" fill="#373636"/>
<path d="M58.4631 24.3326H59.0523C59.0523 23.7887 59.1429 23.4262 59.3695 23.1996C59.5508 22.973 59.8227 22.8823 60.14 22.8823C60.4119 22.8823 60.6838 22.9276 60.9557 23.0183L60.8198 23.5168C60.5932 23.4262 60.3666 23.3808 60.1853 23.3808C60.004 23.3808 59.8681 23.4262 59.7774 23.5621C59.6868 23.6981 59.5961 23.97 59.5961 24.2872H60.4119V24.7858H59.5961V28.0035H59.0523V24.7858H58.4631V24.3326Z" fill="#373636"/>
<path d="M62.9951 24.3329H63.403V23.6531L63.9015 23.5625H63.9468V24.3329H64.9439V24.8315H63.9468V26.6896C63.9468 27.0522 64.0375 27.2788 64.1281 27.4147C64.2188 27.5507 64.4 27.6413 64.5813 27.6413C64.7626 27.6413 65.0345 27.5507 65.2611 27.4147L65.3971 27.9132C65.0798 28.0492 64.8079 28.1398 64.536 28.1398C64.2188 28.1398 63.9468 28.0492 63.7656 27.8226C63.5843 27.596 63.4483 27.2334 63.4483 26.6896V24.8315H62.9951V24.3329Z" fill="#373636"/>
<path d="M65.9411 22.928L66.4396 22.8374H66.4849V24.6049C66.6209 24.5143 66.8022 24.4236 66.9834 24.333C67.1647 24.2423 67.346 24.197 67.482 24.197C67.7992 24.197 68.1164 24.2876 68.343 24.5142C68.5696 24.7409 68.7056 25.1034 68.7056 25.6019V28.0039H68.1618V25.6473C68.1618 25.2847 68.0711 25.0581 67.9352 24.9221C67.7992 24.7862 67.6179 24.7409 67.3913 24.7409C67.21 24.7409 67.0741 24.7862 66.8928 24.8315C66.7115 24.9221 66.5756 25.0128 66.4396 25.0581V28.0039H65.8958V22.928H65.9411Z" fill="#373636"/>
<path d="M72.195 26.3722H70.0197C70.065 26.8254 70.201 27.1427 70.3822 27.324C70.6088 27.5506 70.8808 27.6412 71.1527 27.6412C71.4699 27.6412 71.7872 27.5506 72.1044 27.3693V27.8678C71.7418 28.0491 71.4246 28.1397 71.1074 28.1397C70.6542 28.1397 70.2463 28.0038 69.9743 27.6412C69.6571 27.324 69.4758 26.8254 69.4758 26.1456C69.4758 25.6018 69.6118 25.1486 69.8384 24.786C70.065 24.4688 70.4729 24.2422 70.9714 24.2422C71.334 24.2422 71.6059 24.3328 71.7872 24.5141C71.9684 24.6501 72.0591 24.8767 72.1497 25.1033C72.195 25.3299 72.2404 25.6018 72.2404 25.8284V26.3722H72.195ZM71.6965 25.8737C71.6965 25.6018 71.6512 25.3299 71.5606 25.1486C71.4699 24.9673 71.2886 24.8313 71.0167 24.8313C70.7448 24.8313 70.5182 24.922 70.3822 25.1486C70.201 25.3299 70.1103 25.6018 70.065 25.919H71.6965V25.8737Z" fill="#373636"/>
<path d="M76.0927 23.9251L76.9084 26.463H75.2316L76.0927 23.9251ZM75.7301 23.3359L74.1892 28.0946H74.733L75.0956 27.0069H77.0897L77.4523 28.0946H77.9961L76.4552 23.3359H75.7301Z" fill="#373636"/>
<path d="M78.5852 24.3328H78.9478L79.0837 24.7407C79.3557 24.4235 79.6276 24.2422 79.9448 24.2422C80.0355 24.2422 80.1261 24.2422 80.2621 24.2875C80.3527 24.2875 80.4887 24.3328 80.534 24.3781L80.3527 24.8767C80.2167 24.786 80.0355 24.7407 79.8542 24.7407C79.5369 24.7407 79.3103 24.9673 79.1291 25.2392V28.0491H78.5852V24.3328Z" fill="#373636"/>
<path d="M80.9419 24.3329H81.3498V23.6531L81.8483 23.5625H81.8936V24.3329H82.8907V24.8315H81.8936V26.6896C81.8936 27.0522 81.9843 27.2788 82.0749 27.4147C82.1655 27.5507 82.3468 27.6413 82.5281 27.6413C82.7547 27.6413 82.9813 27.5507 83.2079 27.4147L83.3439 27.9132C83.0266 28.0492 82.7547 28.1398 82.4828 28.1398C82.1655 28.1398 81.8936 28.0492 81.7123 27.8226C81.5311 27.596 81.3951 27.2334 81.3951 26.6896V24.8315H80.9872V24.3329H80.9419Z" fill="#373636"/>
<path d="M38.1143 11.7339V20.39H39.5645V16.8097H43.0542V15.3595H39.5645V13.1841H43.1448V11.7339H38.1143Z" fill="#373636"/>
<path d="M45.3203 10.8726L44.0967 11.0085V20.3898H45.5469V10.8726H45.3203Z" fill="#373636"/>
<path d="M52.073 20.5259C51.8464 20.5259 51.5745 20.4806 51.3479 20.39C51.1212 20.2993 50.8493 20.118 50.6227 19.8461C50.3508 20.0727 50.1242 20.2087 49.8976 20.3446C49.6257 20.4806 49.3084 20.5712 48.9006 20.5712C48.5833 20.5712 48.2661 20.5259 47.9488 20.39C47.6316 20.254 47.3597 20.0727 47.1331 19.7555C46.9065 19.4382 46.7705 18.985 46.7705 18.3959C46.7705 17.8067 46.9065 17.3082 47.269 16.9909C47.6316 16.6737 48.1754 16.4924 49.0365 16.4924C49.3991 16.4924 49.807 16.4924 50.3508 16.5377V16.1752C50.3508 15.722 50.2148 15.3594 49.9882 15.1781C49.7616 14.9969 49.4444 14.9062 49.0818 14.9062C48.8099 14.9062 48.4927 14.9515 48.2208 15.0422C47.9035 15.1328 47.6316 15.2235 47.3597 15.3594L47.0424 13.9998C47.7222 13.6372 48.5833 13.4106 49.3991 13.4106C50.0336 13.4106 50.6227 13.5466 51.0759 13.9092C51.5291 14.2717 51.8011 14.8156 51.8011 15.6767V18.2146C51.8011 18.5318 51.8917 18.7584 52.073 18.9397C52.2543 19.0757 52.4809 19.2116 52.7528 19.257L52.073 20.5259ZM50.3508 17.6254C49.671 17.6254 49.1272 17.6254 48.8099 17.7161C48.4474 17.8067 48.2661 17.988 48.2661 18.3959C48.2661 18.9397 48.6286 19.257 49.1725 19.257C49.3538 19.257 49.671 19.2116 49.8976 19.0303C50.1695 18.8491 50.3508 18.5771 50.3508 18.0333V17.6254Z" fill="#373636"/>
<path d="M53.5686 13.5466H54.7923L54.9282 14.0904C55.5174 13.6826 56.2425 13.4106 56.9676 13.4106C57.6021 13.4106 58.1913 13.5919 58.5991 13.9998C59.007 14.4077 59.3243 14.9969 59.3243 15.8579V20.39H57.874V16.3111C57.874 15.8126 57.6927 15.4501 57.4208 15.2235C57.1489 14.9969 56.7863 14.9062 56.4238 14.9062C55.9253 14.9062 55.4267 15.0422 55.0189 15.3141V20.39H53.5686V13.5466Z" fill="#373636"/>
<path d="M66.3036 20.3897H65.2159L64.944 19.8912C64.4455 20.2991 63.9469 20.5257 63.2218 20.5257C62.3154 20.5257 61.5903 20.1178 61.1371 19.5286C60.6839 18.9395 60.4573 18.1237 60.4573 17.2626C60.4573 15.9937 60.8198 14.9966 61.409 14.3621C61.9982 13.7276 62.8592 13.4104 63.8563 13.4104C64.1282 13.4104 64.4455 13.4104 64.808 13.4557V10.9631L66.0317 10.8271H66.2583V20.3897H66.3036ZM64.8533 14.9966C64.4908 14.906 64.1282 14.8606 63.811 14.8606C63.2671 14.8606 62.8139 15.0419 62.4514 15.4045C62.1341 15.7671 61.9528 16.2656 61.9528 16.9907C61.9528 17.4892 62.0888 18.0331 62.3607 18.3956C62.6327 18.8035 62.9952 19.0301 63.5391 19.0301C63.9923 19.0301 64.4908 18.8488 64.8533 18.6222V14.9966Z" fill="#373636"/>
<path d="M72.6937 18.6226V20.1181C72.4218 20.2541 72.1045 20.3447 71.7873 20.4354C71.47 20.4807 71.1528 20.526 70.8809 20.526C69.9745 20.526 69.1587 20.2088 68.5696 19.6649C67.9804 19.0758 67.5725 18.1694 67.5725 16.991C67.5725 15.858 67.9351 14.9516 68.4789 14.3625C69.0228 13.7733 69.7479 13.4561 70.473 13.4561C70.6543 13.4561 71.0622 13.5014 71.4247 13.6373C71.7873 13.7733 72.1952 14.0452 72.5124 14.4984C72.8296 14.9516 73.0562 15.6314 73.0562 16.5831V17.6255H69.1587C69.2947 18.1694 69.5213 18.5319 69.8838 18.8038C70.2464 19.0304 70.6543 19.1211 71.0622 19.1211C71.606 19.1211 72.1952 18.9398 72.6937 18.6679V18.6226ZM71.6966 16.3112C71.6513 15.8127 71.5154 15.4501 71.2888 15.2235C71.0622 14.9969 70.7902 14.9063 70.5183 14.9063C70.2011 14.9063 69.9292 14.9969 69.6572 15.2235C69.3853 15.4501 69.204 15.8127 69.1134 16.3112H71.6966Z" fill="#373636"/>
<path d="M78.0414 15.2688C77.6789 15.0422 77.3163 14.9062 76.9537 14.9062C76.5005 14.9062 76.0473 15.0875 75.6395 15.4047V20.39H74.1892V13.5466H75.4129L75.5488 14.0904C76.002 13.6826 76.5459 13.4106 77.1803 13.4106C77.3616 13.4106 77.5882 13.4106 77.8148 13.456C78.0414 13.5013 78.268 13.5466 78.4493 13.6826L78.0414 15.2688Z" fill="#373636"/>
<path d="M78.9478 18.6226L78.9931 18.5772C79.1744 18.6679 79.401 18.8038 79.7183 18.8945C79.9902 18.9851 80.3074 19.0758 80.6247 19.0758C80.8966 19.0758 81.1685 19.0304 81.3498 18.8945C81.5311 18.7585 81.667 18.5772 81.667 18.26C81.667 17.9428 81.4858 17.7162 81.2591 17.5802C81.1232 17.4896 80.9872 17.4442 80.8059 17.3989C80.4887 17.3083 80.1261 17.1723 79.8089 16.991C79.4917 16.8097 79.2197 16.5831 79.0838 16.1753C78.9931 15.994 78.9478 15.7221 78.9478 15.4501C78.9478 14.725 79.2197 14.2265 79.6276 13.9093C80.0355 13.592 80.5793 13.4561 81.1685 13.4561C81.667 13.4561 82.2109 13.5467 82.6188 13.728V15.0876L82.5281 15.1329C82.1656 14.9516 81.8483 14.861 81.4404 14.861C81.1685 14.861 80.8966 14.9063 80.7153 14.9969C80.534 15.0876 80.3981 15.2689 80.3981 15.4501C80.3981 15.6767 80.5793 15.858 80.8059 15.9487C80.9419 15.994 81.0779 16.0846 81.2138 16.1299C81.5311 16.2206 81.8936 16.3565 82.2109 16.5831C82.5281 16.7644 82.8 17.0817 82.936 17.4896C83.0266 17.7162 83.0266 17.9428 83.0266 18.26C83.0266 19.0304 82.7094 19.6196 82.2562 19.9822C81.803 20.3447 81.1685 20.526 80.534 20.526C79.8995 20.526 79.3104 20.3447 78.8572 20.0728V18.6226H78.9478Z" fill="#373636"/>
</g>
<defs>
<clipPath id="clip0_12661_18">
<rect width="92" height="38.5222" fill="white" transform="translate(0 0.494629)"/>
</clipPath>
</defs>
</svg>
